<?xml version="1.0" encoding="iso-8859-1"?>
<!-- Generator: Adobe Illustrator 19.0.0, SVG Export Plug-In . SVG Version: 6.00 Build 0)  -->
<svg xmlns="http://www.w3.org/2000/svg" xmlns:xlink="http://www.w3.org/1999/xlink" version="1.1" id="Capa_1" x="0px" y="0px" viewBox="0 0 512 512" style="enable-background:new 0 0 512 512;" xml:space="preserve" width="512px" height="512px">
<g>
	<g>
		<path d="M464.407,48.094c-12.983,0-23.546,10.563-23.546,23.546c0,12.983,10.563,23.546,23.546,23.546    s23.546-10.563,23.546-23.546C487.953,58.657,477.39,48.094,464.407,48.094z M464.407,80.157c-4.696,0-8.517-3.82-8.517-8.517    s3.82-8.517,8.517-8.517s8.517,3.82,8.517,8.517S469.103,80.157,464.407,80.157z" fill="#FFFFFF"/>
	</g>
</g>
<g>
	<g>
		<path d="M400.282,48.094c-12.983,0-23.546,10.563-23.546,23.546c0,12.983,10.563,23.546,23.546,23.546    s23.546-10.563,23.546-23.546C423.828,58.657,413.265,48.094,400.282,48.094z M400.282,80.157c-4.696,0-8.517-3.82-8.517-8.517    s3.82-8.517,8.517-8.517s8.517,3.82,8.517,8.517S404.978,80.157,400.282,80.157z" fill="#FFFFFF"/>
	</g>
</g>
<g>
	<g>
		<path d="M336.157,48.094c-12.983,0-23.546,10.563-23.546,23.546c0,12.983,10.563,23.546,23.546,23.546    s23.546-10.563,23.546-23.546C359.703,58.657,349.14,48.094,336.157,48.094z M336.157,80.157c-4.696,0-8.517-3.82-8.517-8.517    s3.82-8.517,8.517-8.517s8.517,3.82,8.517,8.517S340.853,80.157,336.157,80.157z" fill="#FFFFFF"/>
	</g>
</g>
<g>
	<g>
		<path d="M504.485,24.047h-368.72c-4.15,0-7.515,3.365-7.515,7.515v72.642H71.64c-4.15,0-7.515,3.365-7.515,7.515v72.642H7.515    c-4.15,0-7.515,3.365-7.515,7.515v288.564c0,4.15,3.365,7.515,7.515,7.515h368.72c4.15,0,7.515-3.365,7.515-7.515v-72.642h56.611    c4.15,0,7.515-3.365,7.515-7.515V327.64h56.611c4.15,0,7.515-3.365,7.515-7.515V31.562C512,27.412,508.635,24.047,504.485,24.047z     M368.72,472.924H15.029V279.546H368.72V472.924z M368.72,264.517H15.029v-65.127H368.72V264.517z M432.845,392.767H383.75v-41.08    h16.532c4.15,0,7.515-3.365,7.515-7.515c0-4.15-3.365-7.515-7.515-7.515H383.75v-33.065h16.532c4.15,0,7.515-3.365,7.515-7.515    c0-4.15-3.365-7.515-7.515-7.515H383.75v-33.065h16.532c4.15,0,7.515-3.365,7.515-7.515c0-4.15-3.365-7.515-7.515-7.515H383.75    v-41.08h49.096V392.767z M496.971,312.611h-49.096v-41.08h16.532c4.15,0,7.515-3.365,7.515-7.515c0-4.15-3.365-7.515-7.515-7.515    h-16.532v-33.065h16.532c4.15,0,7.515-3.365,7.515-7.515c0-4.15-3.365-7.515-7.515-7.515h-16.532v-33.065h16.532    c4.15,0,7.515-3.365,7.515-7.515c0-4.15-3.365-7.515-7.515-7.515h-16.532v-41.08h49.096V312.611z M496.971,104.203H238.967    c-4.15,0-7.515,3.365-7.515,7.515s3.365,7.515,7.515,7.515h193.879v65.127H79.155v-65.127h125.077c4.15,0,7.515-3.365,7.515-7.515    s-3.365-7.515-7.515-7.515H143.28V39.076h353.691V104.203z" fill="#FFFFFF"/>
	</g>
</g>
<g>
	<g>
		<path d="M400.282,128.25c-12.983,0-23.546,10.563-23.546,23.546c0,12.983,10.563,23.546,23.546,23.546    s23.546-10.563,23.546-23.546C423.828,138.813,413.265,128.25,400.282,128.25z M400.282,160.313c-4.696,0-8.517-3.82-8.517-8.517    s3.82-8.517,8.517-8.517s8.517,3.82,8.517,8.517S404.978,160.313,400.282,160.313z" fill="#FFFFFF"/>
	</g>
</g>
<g>
	<g>
		<path d="M336.157,128.25c-12.983,0-23.546,10.563-23.546,23.546c0,12.983,10.563,23.546,23.546,23.546    s23.546-10.563,23.546-23.546C359.703,138.813,349.14,128.25,336.157,128.25z M336.157,160.313c-4.696,0-8.517-3.82-8.517-8.517    s3.82-8.517,8.517-8.517s8.517,3.82,8.517,8.517S340.853,160.313,336.157,160.313z" fill="#FFFFFF"/>
	</g>
</g>
<g>
	<g>
		<path d="M272.031,128.25c-12.983,0-23.546,10.563-23.546,23.546c0,12.983,10.563,23.546,23.546,23.546    s23.546-10.563,23.546-23.546C295.577,138.813,285.015,128.25,272.031,128.25z M272.031,160.313c-4.696,0-8.517-3.82-8.517-8.517    s3.82-8.517,8.517-8.517s8.517,3.82,8.517,8.517S276.727,160.313,272.031,160.313z" fill="#FFFFFF"/>
	</g>
</g>
<g>
	<g>
		<path d="M336.157,208.407c-12.983,0-23.546,10.563-23.546,23.546c0,12.983,10.563,23.546,23.546,23.546    s23.546-10.563,23.546-23.546C359.703,218.97,349.14,208.407,336.157,208.407z M336.157,240.47c-4.696,0-8.517-3.82-8.517-8.517    s3.82-8.517,8.517-8.517s8.517,3.82,8.517,8.517S340.853,240.47,336.157,240.47z" fill="#FFFFFF"/>
	</g>
</g>
<g>
	<g>
		<path d="M272.031,208.407c-12.983,0-23.546,10.563-23.546,23.546c0,12.983,10.563,23.546,23.546,23.546    s23.546-10.563,23.546-23.546C295.577,218.97,285.015,208.407,272.031,208.407z M272.031,240.47c-4.696,0-8.517-3.82-8.517-8.517    s3.82-8.517,8.517-8.517s8.517,3.82,8.517,8.517S276.727,240.47,272.031,240.47z" fill="#FFFFFF"/>
	</g>
</g>
<g>
	<g>
		<path d="M207.906,208.407c-12.983,0-23.546,10.563-23.546,23.546c0,12.983,10.563,23.546,23.546,23.546    s23.546-10.563,23.546-23.546C231.452,218.97,220.889,208.407,207.906,208.407z M207.906,240.47c-4.696,0-8.517-3.82-8.517-8.517    s3.82-8.517,8.517-8.517s8.517,3.82,8.517,8.517S212.602,240.47,207.906,240.47z" fill="#FFFFFF"/>
	</g>
</g>
<g>
	<g>
		<path d="M159.812,296.579H55.609c-4.15,0-7.515,3.365-7.515,7.515v144.282c0,4.15,3.365,7.515,7.515,7.515h104.204    c4.15,0,7.515-3.365,7.515-7.515V304.094C167.327,299.944,163.962,296.579,159.812,296.579z M152.297,440.861H63.123V311.609    h89.174V440.861z" fill="#FFFFFF"/>
	</g>
</g>
<g>
	<g>
		<path d="M336.157,320.626h-128.25c-4.15,0-7.515,3.365-7.515,7.515c0,4.15,3.365,7.515,7.515,7.515h128.25    c4.15,0,7.515-3.365,7.515-7.515C343.671,323.991,340.307,320.626,336.157,320.626z" fill="#FFFFFF"/>
	</g>
</g>
<g>
	<g>
		<path d="M336.157,368.72h-128.25c-4.15,0-7.515,3.365-7.515,7.515c0,4.15,3.365,7.515,7.515,7.515h128.25    c4.15,0,7.515-3.365,7.515-7.515C343.671,372.085,340.307,368.72,336.157,368.72z" fill="#FFFFFF"/>
	</g>
</g>
<g>
	<g>
		<path d="M336.157,416.814h-128.25c-4.15,0-7.515,3.365-7.515,7.515c0,4.15,3.365,7.515,7.515,7.515h128.25    c4.15,0,7.515-3.365,7.515-7.515C343.671,420.179,340.307,416.814,336.157,416.814z" fill="#FFFFFF"/>
	</g>
</g>
<g>
</g>
<g>
</g>
<g>
</g>
<g>
</g>
<g>
</g>
<g>
</g>
<g>
</g>
<g>
</g>
<g>
</g>
<g>
</g>
<g>
</g>
<g>
</g>
<g>
</g>
<g>
</g>
<g>
</g>
</svg>
