<svg xmlns="http://www.w3.org/2000/svg" width="37" height="37" viewBox="0 0 37 37">
    <g fill="#FFF" fill-rule="nonzero">
        <path d="M29.5 22c-4.136 0-7.5 3.364-7.5 7.5s3.364 7.5 7.5 7.5 7.5-3.364 7.5-7.5-3.364-7.5-7.5-7.5zm0 13.75a6.257 6.257 0 0 1-6.25-6.25 6.257 6.257 0 0 1 6.25-6.25 6.257 6.257 0 0 1 6.25 6.25 6.257 6.257 0 0 1-6.25 6.25z"/>
        <path d="M33.375 28.75H30.25v-3.125a.624.624 0 1 0-1.25 0v3.75c0 .346.28.625.625.625h3.75a.624.624 0 1 0 0-1.25zM16.632 13H4v19h12.632V20.207H28V13H16.632zm5.684 1.31h4.42v4.587h-4.42V14.31zm-11.369 0h4.421v4.587h-4.42V14.31zm-5.684 0h4.421v4.587h-4.42V14.31zm0 5.897h4.421v4.586h-4.42v-4.586zM9.684 30.69h-4.42v-4.587h4.42v4.587zm5.684 0h-4.42v-4.587h4.42v4.587zm0-5.897h-4.42v-4.586h4.42v4.586zm5.685-5.896h-4.421V14.31h4.42v4.587z"/>
        <path d="M20.942 34.737H1.27V10.105h30.462v8.21c0 .35.283.632.634.632.351 0 .635-.282.635-.631V3.158a.633.633 0 0 0-.635-.632h-3.173V.632A.633.633 0 0 0 28.558 0h-4.443a.633.633 0 0 0-.634.632v1.894H9.519V.632A.633.633 0 0 0 8.885 0H4.442a.633.633 0 0 0-.634.632v1.894H.635A.633.633 0 0 0 0 3.158v32.21c0 .35.284.632.635.632h20.307a.633.633 0 1 0 0-1.263zM24.75 1.263h3.173v3.79H24.75v-3.79zm-19.673 0H8.25v3.79H5.077v-3.79zM1.269 3.79h2.539v1.895c0 .35.283.632.634.632h4.443c.35 0 .634-.283.634-.632V3.79h13.962v1.895c0 .35.283.632.634.632h4.443c.35 0 .634-.283.634-.632V3.79h2.539v5.053H1.269V3.79z"/>
    </g>
</svg>
