<svg xmlns="http://www.w3.org/2000/svg" width="30" height="30" viewBox="0 0 30 30">
    <g fill="#000" fill-rule="nonzero">
        <path d="M24.491 10.08L27 19.91l-24.027.002 2.55-9.822 18.968-.01zM5.156 9c-.207 0-.39.158-.449.389L1.895 20.298c-.09.35.135.702.449.702h25.312c.314 0 .54-.352.45-.702l-2.813-10.91c-.06-.23-.242-.388-.45-.388H5.157z"/>
        <path d="M14.063 18.818h1.874c.26 0 .47-.244.47-.545 0-.302-.21-.546-.47-.546h-1.874c-.26 0-.47.244-.47.546 0 .301.21.545.47.545zM10.781 17.182h1.875c.26 0 .469-.244.469-.546 0-.3-.21-.545-.469-.545h-1.875c-.259 0-.469.244-.469.545 0 .302.21.546.47.546zM17.344 17.182h1.875c.259 0 .468-.244.468-.546 0-.3-.21-.545-.468-.545h-1.875c-.26 0-.469.244-.469.545 0 .302.21.546.469.546zM20.156 15.545h1.875c.26 0 .469-.244.469-.545 0-.301-.21-.545-.469-.545h-1.875c-.259 0-.468.244-.468.545 0 .301.21.545.468.545zM7.969 15.545h1.875c.259 0 .469-.244.469-.545 0-.301-.21-.545-.47-.545H7.97c-.26 0-.469.244-.469.545 0 .301.21.545.469.545zM14.063 12.273h1.874c.26 0 .47-.244.47-.546 0-.301-.21-.545-.47-.545h-1.874c-.26 0-.47.244-.47.545 0 .302.21.546.47.546zM10.781 13.91h1.875c.26 0 .469-.245.469-.546 0-.302-.21-.546-.469-.546h-1.875c-.259 0-.469.244-.469.546 0 .3.21.545.47.545zM17.344 13.91h1.875c.259 0 .468-.245.468-.546 0-.302-.21-.546-.468-.546h-1.875c-.26 0-.469.244-.469.546 0 .3.21.545.469.545zM5.156 10.09H3.281c-.259 0-.469-.243-.469-.545 0-.3.21-.545.47-.545h1.874c.26 0 .469.244.469.545 0 .302-.21.546-.469.546zM2.344 21H.469C.209 21 0 20.756 0 20.455c0-.302.21-.546.469-.546h1.875c.259 0 .469.244.469.546 0 .3-.21.545-.47.545zM3.047 18.273H1.172c-.259 0-.469-.244-.469-.546 0-.301.21-.545.469-.545h1.875c.259 0 .469.244.469.545 0 .302-.21.546-.47.546zM3.75 15.545H1.875c-.259 0-.469-.244-.469-.545 0-.301.21-.545.469-.545H3.75c.259 0 .469.244.469.545 0 .301-.21.545-.469.545zM4.453 12.818H2.578c-.259 0-.469-.244-.469-.545 0-.302.21-.546.47-.546h1.874c.259 0 .469.244.469.546 0 .301-.21.545-.469.545zM24.844 10.09h1.875c.259 0 .468-.243.468-.545 0-.3-.21-.545-.468-.545h-1.875c-.26 0-.469.244-.469.545 0 .302.21.546.469.546zM27.656 21h1.875c.26 0 .469-.244.469-.545 0-.302-.21-.546-.469-.546h-1.875c-.259 0-.468.244-.468.546 0 .3.21.545.468.545zM26.953 18.273h1.875c.259 0 .469-.244.469-.546 0-.301-.21-.545-.469-.545h-1.875c-.259 0-.469.244-.469.545 0 .302.21.546.47.546zM26.25 15.545h1.875c.259 0 .469-.244.469-.545 0-.301-.21-.545-.469-.545H26.25c-.259 0-.469.244-.469.545 0 .301.21.545.469.545zM25.547 12.818h1.875c.259 0 .469-.244.469-.545 0-.302-.21-.546-.47-.546h-1.874c-.259 0-.469.244-.469.546 0 .301.21.545.469.545z"/>
    </g>
</svg>
