<?xml version="1.0" encoding="utf-8"?>
<!-- Generator: Adobe Illustrator 21.0.2, SVG Export Plug-In . SVG Version: 6.00 Build 0)  -->
<svg version="1.1" id="Layer_1" xmlns="http://www.w3.org/2000/svg" xmlns:xlink="http://www.w3.org/1999/xlink" x="0px" y="0px"
	 viewBox="0 0 64 27.5" style="enable-background:new 0 0 64 27.5;" xml:space="preserve">
<title>carpet</title>
<desc>Created with Sketch.</desc>
<g>
	<g transform="translate(-239.000000, -812.000000)">
		<g transform="translate(239.000000, 812.000000)">
			<path d="M52.2,2l5.4,18L6.3,20l5.4-18L52.2,2z M11,0c-0.4,0-0.8,0.3-1,0.7l-6,20C3.8,21.4,4.3,22,5,22h54c0.7,0,1.2-0.6,1-1.3
				l-6-20C53.8,0.3,53.4,0,53,0H11L11,0z"/>
			<path d="M30,18h4c0.6,0,1-0.4,1-1s-0.4-1-1-1h-4c-0.6,0-1,0.4-1,1S29.4,18,30,18L30,18z"/>
			<path d="M23,15h4c0.6,0,1-0.4,1-1s-0.4-1-1-1h-4c-0.6,0-1,0.4-1,1S22.4,15,23,15L23,15z"/>
			<path d="M37,15h4c0.6,0,1-0.4,1-1s-0.4-1-1-1h-4c-0.6,0-1,0.4-1,1S36.4,15,37,15L37,15z"/>
			<path d="M43,12h4c0.6,0,1-0.4,1-1s-0.4-1-1-1h-4c-0.6,0-1,0.4-1,1S42.4,12,43,12L43,12z"/>
			<path d="M17,12h4c0.6,0,1-0.4,1-1s-0.4-1-1-1h-4c-0.6,0-1,0.4-1,1S16.4,12,17,12L17,12z"/>
			<path d="M30,6h4c0.6,0,1-0.4,1-1s-0.4-1-1-1h-4c-0.6,0-1,0.4-1,1S29.4,6,30,6L30,6z"/>
			<path d="M23,9h4c0.6,0,1-0.4,1-1s-0.4-1-1-1h-4c-0.6,0-1,0.4-1,1S22.4,9,23,9L23,9z"/>
			<path d="M37,9h4c0.6,0,1-0.4,1-1s-0.4-1-1-1h-4c-0.6,0-1,0.4-1,1S36.4,9,37,9L37,9z"/>
			<path d="M11,2H7C6.4,2,6,1.6,6,1s0.4-1,1-1h4c0.6,0,1,0.4,1,1S11.6,2,11,2L11,2z"/>
			<path d="M5,22H1c-0.6,0-1-0.4-1-1s0.4-1,1-1h4c0.6,0,1,0.4,1,1S5.6,22,5,22L5,22z"/>
			<path d="M6.5,17h-4c-0.6,0-1-0.4-1-1s0.4-1,1-1h4c0.6,0,1,0.4,1,1S7.1,17,6.5,17L6.5,17z"/>
			<path d="M8,12H4c-0.6,0-1-0.4-1-1s0.4-1,1-1h4c0.6,0,1,0.4,1,1S8.6,12,8,12L8,12z"/>
			<path d="M9.5,7h-4c-0.6,0-1-0.4-1-1s0.4-1,1-1h4c0.6,0,1,0.4,1,1S10.1,7,9.5,7L9.5,7z"/>
			<path d="M53,2h4c0.6,0,1-0.4,1-1s-0.4-1-1-1h-4c-0.6,0-1,0.4-1,1S52.4,2,53,2L53,2z"/>
			<path d="M59,22h4c0.6,0,1-0.4,1-1s-0.4-1-1-1h-4c-0.6,0-1,0.4-1,1S58.4,22,59,22L59,22z"/>
			<path d="M57.5,17h4c0.6,0,1-0.4,1-1s-0.4-1-1-1h-4c-0.6,0-1,0.4-1,1S56.9,17,57.5,17L57.5,17z"/>
			<path d="M56,12h4c0.6,0,1-0.4,1-1s-0.4-1-1-1h-4c-0.6,0-1,0.4-1,1S55.4,12,56,12L56,12z"/>
			<path d="M54.5,7h4c0.6,0,1-0.4,1-1s-0.4-1-1-1h-4c-0.6,0-1,0.4-1,1S53.9,7,54.5,7L54.5,7z"/>
		</g>
	</g>
</g>
</svg>
