<?xml version="1.0" encoding="utf-8"?>
<!-- Generator: Adobe Illustrator 22.0.1, SVG Export Plug-In . SVG Version: 6.00 Build 0)  -->
<svg version="1.1" id="Layer_1" xmlns="http://www.w3.org/2000/svg" xmlns:xlink="http://www.w3.org/1999/xlink" x="0px" y="0px"
	 viewBox="0 0 100 125" style="enable-background:new 0 0 100 125;" xml:space="preserve">
<style type="text/css">
	.st0{stroke:#FCFCFC;stroke-width:4;stroke-linecap:round;stroke-miterlimit:10;}
	.st1{stroke:#000000;stroke-width:3;stroke-linecap:round;stroke-miterlimit:10;}
</style>
<g>
	<path d="M78,63V23c0-1.1-0.9-2-2-2H10c-1.1,0-2,0.9-2,2v40c0,1.1,0.9,2,2,2h66C77.1,65,78,64.1,78,63z M75.2,61.7H10.8V24.3h64.5
		V61.7z"/>
	<path d="M43,56c7.2,0,13-5.8,13-13s-5.8-13-13-13s-13,5.8-13,13S35.8,56,43,56z M43,33c5.6,0,10,4.4,10,10s-4.4,10-10,10
		s-10-4.4-10-10S37.4,33,43,33z"/>
	<path d="M17,70.5c0,1.1,0.9,1.5,2,1.5h64c1.1,0,2-0.9,2-2V32c0-1.1-0.4-2-1.5-2S82,30.9,82,32v37H19C17.9,69,17,69.4,17,70.5z"/>
	<path d="M23.6,76.8c0,1.1,0.9,1.5,2,1.5h64c1.1,0,2-0.9,2-2v-38c0-1.1-0.4-2-1.5-2s-1.5,0.9-1.5,2v37h-63
		C24.5,75.4,23.6,75.7,23.6,76.8z"/>
	<path d="M64,57c3.3,0,6-2.7,6-6s-2.7-6-6-6s-6,2.7-6,6S60.7,57,64,57z M64,47.8c1.8,0,3.2,1.5,3.2,3.2s-1.5,3.2-3.2,3.2
		s-3.2-1.5-3.2-3.2S62.2,47.8,64,47.8z"/>
	<path d="M22,41c3.3,0,6-2.7,6-6s-2.7-6-6-6s-6,2.7-6,6S18.7,41,22,41z M22,31.6c1.9,0,3.4,1.5,3.4,3.4s-1.5,3.4-3.4,3.4
		s-3.4-1.5-3.4-3.4S20.1,31.6,22,31.6z"/>
</g>
<line class="st0" x1="89.9" y1="18.1" x2="8" y2="88.6"/>
<line class="st1" x1="89" y1="15.1" x2="7.1" y2="85.6"/>
</svg>
