<svg xmlns="http://www.w3.org/2000/svg" width="30" height="30" viewBox="0 0 30 30">
    <g fill="#000" fill-rule="evenodd">
        <path stroke="#000" stroke-width=".4" d="M8.5 8.92a.42.42 0 0 1-.42-.42c0-.221.199-.42.42-.42a.42.42 0 1 1 0 .84m0-1.503c-.597 0-1.083.486-1.083 1.083S7.903 9.583 8.5 9.583 9.583 9.097 9.583 8.5 9.097 7.417 8.5 7.417M12.833 11.308a.42.42 0 0 1 .42.42c0 .221-.199.42-.42.42a.42.42 0 1 1 0-.84m0 1.525c.597 0 1.084-.486 1.084-1.083s-.487-1.083-1.084-1.083c-.597 0-1.083.486-1.083 1.083s.486 1.083 1.083 1.083M11.75 17.608a.42.42 0 0 1-.42-.42c0-.22.199-.42.42-.42a.42.42 0 1 1 0 .84m1.083-.442c0-.596-.486-1.083-1.083-1.083s-1.083.487-1.083 1.083c0 .597.486 1.083 1.083 1.083.597.022 1.083-.486 1.083-1.083M13.917 23.026a.42.42 0 0 1-.42-.42c0-.222.199-.42.42-.42a.42.42 0 1 1 0 .84m0-1.526c-.597 0-1.084.486-1.084 1.083s.487 1.084 1.084 1.084c.597 0 1.083-.487 1.083-1.084 0-.597-.486-1.083-1.083-1.083M22.583 18.67a.42.42 0 0 1-.42-.42c0-.221.2-.42.42-.42a.42.42 0 1 1 0 .84m0-1.503c-.597 0-1.083.486-1.083 1.083s.486 1.083 1.083 1.083 1.084-.486 1.084-1.083-.487-1.083-1.084-1.083M19.333 21.942a.42.42 0 0 1-.42-.42c0-.22.2-.42.42-.42a.42.42 0 1 1 0 .84m0-1.525c-.597 0-1.083.486-1.083 1.083s.486 1.083 1.083 1.083 1.084-.486 1.084-1.083-.487-1.083-1.084-1.083"/>
        <path stroke="#000" stroke-width=".3" d="M17.808 15a.42.42 0 1 1 .84 0c0 .221-.199.42-.42.42a.42.42 0 0 1-.42-.42m1.525 0c0-.597-.486-1.083-1.083-1.083s-1.083.486-1.083 1.083.486 1.083 1.083 1.083 1.083-.486 1.083-1.083"/>
        <path stroke="#000" stroke-width=".4" d="M5.25 14.337a.42.42 0 0 1-.42-.42c0-.221.199-.42.42-.42a.42.42 0 0 1 .42.42c0 .22-.199.42-.42.42m1.083-.42c0-.597-.486-1.084-1.083-1.084s-1.083.487-1.083 1.084c0 .597.486 1.083 1.083 1.083s1.083-.486 1.083-1.083M7.417 20.859a.42.42 0 0 1-.42-.42c0-.221.199-.42.42-.42a.42.42 0 1 1 0 .84m0-1.526c-.597 0-1.084.487-1.084 1.084 0 .597.487 1.083 1.084 1.083.597 0 1.083-.486 1.083-1.083s-.486-1.084-1.083-1.084"/>
        <path stroke="#000" stroke-width=".4" d="M14.896 27.272c-6.682 0-12.116-5.434-12.116-12.116C2.78 8.474 8.214 3.04 14.896 3.04c.416 0 .832.026 1.248.078a3.176 3.176 0 0 0-.078.676c0 .572.13 1.144.39 1.638a4.515 4.515 0 0 0-.754 2.47 4.472 4.472 0 0 0 4.472 4.472h.078a4.278 4.278 0 0 0 3.614 1.976h.442c.65.91 1.586 1.56 2.652 1.846-.546 6.24-5.772 11.076-12.064 11.076m9.906-13.546l-.156-.234-.26.052c-.182.026-.364.026-.546.026-1.274 0-2.444-.676-3.042-1.794l-.104-.208h-.234c-.078 0-.13 0-.208.026h-.078a3.706 3.706 0 0 1-3.692-3.692c0-.806.26-1.56.728-2.236l.156-.208-.13-.234c-.26-.416-.39-.936-.39-1.456 0-.286.052-.572.156-.91l.13-.442-.442-.078c-.572-.078-1.17-.13-1.794-.13C7.798 2.208 2 7.98 2 15.104 2 22.228 7.772 28 14.896 28c6.812 0 12.454-5.33 12.844-12.116l.026-.338-.338-.078c-1.092-.182-2.002-.806-2.626-1.742"/>
        <path stroke="#000" stroke-width=".4" d="M19.997 6.333a.42.42 0 1 1 .84 0c0 .221-.2.42-.42.42a.406.406 0 0 1-.42-.42m1.503 0c0-.597-.486-1.083-1.084-1.083-.596 0-1.083.486-1.083 1.083s.487 1.084 1.083 1.084c.598 0 1.084-.487 1.084-1.084M23.667 10.247a.42.42 0 0 1 .42.42c0 .22-.2.42-.42.42a.42.42 0 1 1 0-.84m-1.084.42c0 .597.487 1.083 1.084 1.083.597 0 1.083-.486 1.083-1.083s-.486-1.084-1.083-1.084-1.084.487-1.084 1.084"/>
        <path d="M24.227 6.875s-.019.019 0 0h-.019.019zm.523 0a.542.542 0 1 0-1.084 0 .542.542 0 0 0 1.084 0z"/>
    </g>
</svg>
