<?xml version="1.0" encoding="utf-8"?>
<!-- Generator: Adobe Illustrator 21.0.2, SVG Export Plug-In . SVG Version: 6.00 Build 0)  -->
<svg version="1.1" id="Layer_1" xmlns="http://www.w3.org/2000/svg" xmlns:xlink="http://www.w3.org/1999/xlink" x="0px" y="0px"
	 viewBox="0 0 128 160" style="enable-background:new 0 0 128 160;" xml:space="preserve">
<style type="text/css">
	.st0{display:none;}
	.st1{display:inline;}
	.st2{fill:none;stroke:#000000;stroke-width:0.1;stroke-miterlimit:10;}
</style>
<g class="st0">
	<g class="st1">
		<rect y="0" class="st2" width="128" height="128"/>
		<line class="st2" x1="0" y1="124" x2="128" y2="124"/>
		<line class="st2" x1="0" y1="120" x2="128" y2="120"/>
		<line class="st2" x1="0" y1="116" x2="128" y2="116"/>
		<line class="st2" x1="0" y1="112" x2="128" y2="112"/>
		<line class="st2" x1="0" y1="108" x2="128" y2="108"/>
		<line class="st2" x1="0" y1="104" x2="128" y2="104"/>
		<line class="st2" x1="0" y1="100" x2="128" y2="100"/>
		<line class="st2" x1="0" y1="96" x2="128" y2="96"/>
		<line class="st2" x1="0" y1="92" x2="128" y2="92"/>
		<line class="st2" x1="0" y1="88" x2="128" y2="88"/>
		<line class="st2" x1="0" y1="84" x2="128" y2="84"/>
		<line class="st2" x1="0" y1="80" x2="128" y2="80"/>
		<line class="st2" x1="0" y1="76" x2="128" y2="76"/>
		<line class="st2" x1="0" y1="72" x2="128" y2="72"/>
		<line class="st2" x1="0" y1="68" x2="128" y2="68"/>
		<line class="st2" x1="0" y1="64" x2="128" y2="64"/>
		<line class="st2" x1="0" y1="60" x2="128" y2="60"/>
		<line class="st2" x1="0" y1="56" x2="128" y2="56"/>
		<line class="st2" x1="0" y1="52" x2="128" y2="52"/>
		<line class="st2" x1="0" y1="48" x2="128" y2="48"/>
		<line class="st2" x1="0" y1="44" x2="128" y2="44"/>
		<line class="st2" x1="0" y1="40" x2="128" y2="40"/>
		<line class="st2" x1="0" y1="36" x2="128" y2="36"/>
		<line class="st2" x1="0" y1="32" x2="128" y2="32"/>
		<line class="st2" x1="0" y1="28" x2="128" y2="28"/>
		<line class="st2" x1="0" y1="24" x2="128" y2="24"/>
		<line class="st2" x1="0" y1="20" x2="128" y2="20"/>
		<line class="st2" x1="0" y1="16" x2="128" y2="16"/>
		<line class="st2" x1="0" y1="12" x2="128" y2="12"/>
		<line class="st2" x1="0" y1="8" x2="128" y2="8"/>
		<line class="st2" x1="0" y1="4" x2="128" y2="4"/>
		<line class="st2" x1="124" y1="0" x2="124" y2="128"/>
		<line class="st2" x1="120" y1="0" x2="120" y2="128"/>
		<line class="st2" x1="116" y1="0" x2="116" y2="128"/>
		<line class="st2" x1="112" y1="0" x2="112" y2="128"/>
		<line class="st2" x1="108" y1="0" x2="108" y2="128"/>
		<line class="st2" x1="104" y1="0" x2="104" y2="128"/>
		<line class="st2" x1="100" y1="0" x2="100" y2="128"/>
		<line class="st2" x1="96" y1="0" x2="96" y2="128"/>
		<line class="st2" x1="92" y1="0" x2="92" y2="128"/>
		<line class="st2" x1="88" y1="0" x2="88" y2="128"/>
		<line class="st2" x1="84" y1="0" x2="84" y2="128"/>
		<line class="st2" x1="80" y1="0" x2="80" y2="128"/>
		<line class="st2" x1="76" y1="0" x2="76" y2="128"/>
		<line class="st2" x1="72" y1="0" x2="72" y2="128"/>
		<line class="st2" x1="68" y1="0" x2="68" y2="128"/>
		<line class="st2" x1="64" y1="0" x2="64" y2="128"/>
		<line class="st2" x1="60" y1="0" x2="60" y2="128"/>
		<line class="st2" x1="56" y1="0" x2="56" y2="128"/>
		<line class="st2" x1="52" y1="0" x2="52" y2="128"/>
		<line class="st2" x1="48" y1="0" x2="48" y2="128"/>
		<line class="st2" x1="44" y1="0" x2="44" y2="128"/>
		<line class="st2" x1="40" y1="0" x2="40" y2="128"/>
		<line class="st2" x1="36" y1="0" x2="36" y2="128"/>
		<line class="st2" x1="32" y1="0" x2="32" y2="128"/>
		<line class="st2" x1="28" y1="0" x2="28" y2="128"/>
		<line class="st2" x1="24" y1="0" x2="24" y2="128"/>
		<line class="st2" x1="20" y1="0" x2="20" y2="128"/>
		<line class="st2" x1="16" y1="0" x2="16" y2="128"/>
		<line class="st2" x1="12" y1="0" x2="12" y2="128"/>
		<line class="st2" x1="8" y1="0" x2="8" y2="128"/>
		<line class="st2" x1="4" y1="0" x2="4" y2="128"/>
	</g>
</g>
<g>
	<g>
		<path d="M39.6,34.7c-2.7,0-4.9,2.2-4.9,4.9s2.2,4.9,4.9,4.9s4.9-2.2,4.9-4.9S42.3,34.7,39.6,34.7z M39.6,41.5
			c-1.1,0-1.9-0.9-1.9-1.9s0.9-1.9,1.9-1.9c1.1,0,1.9,0.9,1.9,1.9S40.7,41.5,39.6,41.5z"/>
		<path d="M56.8,54.8c2.7,0,4.9-2.2,4.9-4.9S59.5,45,56.8,45s-4.9,2.2-4.9,4.9S54.1,54.8,56.8,54.8z M56.8,47.9
			c1.1,0,1.9,0.9,1.9,1.9s-0.9,1.9-1.9,1.9c-1.1,0-1.9-0.9-1.9-1.9S55.7,47.9,56.8,47.9z"/>
		<path d="M59.7,71.9c0-2.7-2.2-4.9-4.9-4.9s-4.9,2.2-4.9,4.9s2.2,4.9,4.9,4.9C57.5,76.9,59.7,74.6,59.7,71.9z M54.8,73.9
			c-1.1,0-1.9-0.9-1.9-1.9s0.9-1.9,1.9-1.9c1.1,0,1.9,0.9,1.9,1.9S55.9,73.9,54.8,73.9z"/>
		<path d="M61.9,90.9c-2.7,0-4.9,2.2-4.9,4.9s2.2,4.9,4.9,4.9c2.7,0,4.9-2.2,4.9-4.9S64.6,90.9,61.9,90.9z M61.9,97.8
			c-1.1,0-1.9-0.9-1.9-1.9s0.9-1.9,1.9-1.9c1.1,0,1.9,0.9,1.9,1.9S63,97.8,61.9,97.8z"/>
		<path d="M95.6,71.1c-2.7,0-4.9,2.2-4.9,4.9s2.2,4.9,4.9,4.9c2.7,0,4.9-2.2,4.9-4.9S98.3,71.1,95.6,71.1z M95.6,77.9
			c-1.1,0-1.9-0.9-1.9-1.9s0.9-1.9,1.9-1.9c1.1,0,1.9,0.9,1.9,1.9S96.7,77.9,95.6,77.9z"/>
		<path d="M82.7,84.4c-2.7,0-4.9,2.2-4.9,4.9s2.2,4.9,4.9,4.9c2.7,0,4.9-2.2,4.9-4.9S85.4,84.4,82.7,84.4z M82.7,91.3
			c-1.1,0-1.9-0.9-1.9-1.9s0.9-1.9,1.9-1.9c1.1,0,1.9,0.9,1.9,1.9S83.8,91.3,82.7,91.3z"/>
		<path d="M83.4,65.7c0-2.7-2.2-4.9-4.9-4.9c-2.7,0-4.9,2.2-4.9,4.9c0,2.7,2.2,4.9,4.9,4.9C81.2,70.6,83.4,68.4,83.4,65.7z
			 M76.5,65.7c0-1.1,0.9-1.9,1.9-1.9c1.1,0,1.9,0.9,1.9,1.9s-0.9,1.9-1.9,1.9S76.5,66.8,76.5,65.7z"/>
		<path d="M34.2,58.9c0-2.7-2.2-4.9-4.9-4.9s-4.9,2.2-4.9,4.9s2.2,4.9,4.9,4.9C32,63.8,34.2,61.6,34.2,58.9z M29.3,60.8
			c-1.1,0-1.9-0.9-1.9-1.9s0.9-1.9,1.9-1.9c1.1,0,1.9,0.9,1.9,1.9S30.3,60.8,29.3,60.8z"/>
		<path d="M35.2,79.4c-2.7,0-4.9,2.2-4.9,4.9s2.2,4.9,4.9,4.9s4.9-2.2,4.9-4.9S37.9,79.4,35.2,79.4z M35.2,86.3
			c-1.1,0-1.9-0.9-1.9-1.9s0.9-1.9,1.9-1.9c1.1,0,1.9,0.9,1.9,1.9S36.3,86.3,35.2,86.3z"/>
		<path d="M102.2,58.5l-0.6-0.9l-1,0.2c-0.7,0.1-1.4,0.1-2.1,0.1c-4.9,0-9.4-2.6-11.7-6.9l-0.4-0.8h-0.9c-0.3,0-0.5,0-0.8,0.1
			c-0.1,0-0.2,0-0.3,0c-7.8,0-14.2-6.4-14.2-14.2c0-3.1,1-6,2.8-8.6l0.6-0.8l-0.5-0.9c-1-1.6-1.5-3.6-1.5-5.6c0-1.1,0.2-2.2,0.6-3.5
			l0.5-1.7L71,14.7c-2.2-0.3-4.5-0.5-6.9-0.5c-27.3,0-49.6,22.2-49.6,49.6s22.2,49.6,49.6,49.6c26.2,0,47.9-20.5,49.4-46.6l0.1-1.3
			l-1.3-0.3C108.1,64.5,104.6,62.1,102.2,58.5z M64.1,110.6c-25.7,0-46.6-20.9-46.6-46.6s20.9-46.6,46.6-46.6c1.6,0,3.2,0.1,4.8,0.3
			c-0.2,0.9-0.3,1.8-0.3,2.6c0,2.2,0.5,4.4,1.5,6.3c-1.9,2.9-2.9,6.2-2.9,9.5c0,9.5,7.7,17.2,17.2,17.2c0.1,0,0.2,0,0.3,0
			c3,4.7,8.2,7.6,13.9,7.6c0.5,0,1.1,0,1.7,0c2.5,3.5,6.1,6,10.2,7.1C108.4,92,88.3,110.6,64.1,110.6z"/>
		<path d="M89.5,31c0-2.7-2.2-4.9-4.9-4.9c-2.7,0-4.9,2.2-4.9,4.9s2.2,4.9,4.9,4.9S89.5,33.7,89.5,31z M82.7,31
			c0-1.1,0.9-1.9,1.9-1.9c1.1,0,1.9,0.9,1.9,1.9s-0.9,1.9-1.9,1.9C83.5,32.9,82.7,32.1,82.7,31z"/>
		<path d="M95.7,47c0,2.7,2.2,4.9,4.9,4.9c2.7,0,4.9-2.2,4.9-4.9s-2.2-4.9-4.9-4.9C97.9,42.1,95.7,44.3,95.7,47z M100.6,45.1
			c1.1,0,1.9,0.9,1.9,1.9s-0.9,1.9-1.9,1.9c-1.1,0-1.9-0.9-1.9-1.9S99.5,45.1,100.6,45.1z"/>
		<path d="M105.5,31c0-1.6-1.3-2.9-2.9-2.9s-2.9,1.3-2.9,2.9c0,1.6,1.3,2.9,2.9,2.9S105.5,32.6,105.5,31z M102.7,31
			C102.7,31,102.6,31.1,102.7,31L102.7,31L102.7,31z"/>
	</g>
</g>
</svg>
