<?xml version="1.0" encoding="iso-8859-1"?>
<!-- Generator: Adobe Illustrator 19.0.0, SVG Export Plug-In . SVG Version: 6.00 Build 0)  -->
<svg version="1.1" id="Capa_1" xmlns="http://www.w3.org/2000/svg" xmlns:xlink="http://www.w3.org/1999/xlink" x="0px" y="0px"
	 viewBox="0 0 120.001 120.001" style="enable-background:new 0 0 120.001 120.001;" xml:space="preserve">
<g id="_x30_206-gingerbread-man">
	<g>
		<path style="fill-rule:evenodd;clip-rule:evenodd;" d="M91.641,58.906c7.461-0.617,13.356-2.801,17.692-6.544
			c1.502-1.972,2.982-3.965,3.635-6.785c0.121-1.899-0.07-3.485-0.484-4.848c-2.505-5.008-8.58-6.447-15.026-7.513
			c-3.588-0.034-7.141-0.032-10.422,0.242c-1.549,0.228-3.135,0.419-4.847,0.483c-0.394,0.497-1.789-0.01-2.181,0.485h-1.454
			c-0.451-0.23-0.81,0.726-0.97,0c1.518-3.167,2.781-6.591,2.909-11.147c0.065-3.283-0.578-6.684-1.212-8.969
			c-0.242-0.873-0.476-1.741-0.728-2.424c-0.558-1.517-1.499-2.811-2.181-3.877c-0.173-0.27-0.247-0.29-0.485-0.484
			c-0.08-0.066,0.063-0.398,0-0.484c-0.179-0.246-0.535-0.489-0.727-0.727c-0.629-0.775-1.052-1.136-1.696-1.696
			c-0.339-0.296-0.619-0.7-0.97-0.971c-1.129-0.865-2.269-1.389-3.392-1.939c-0.131-0.064,0.011-0.179-0.243-0.241
			c-0.143-0.037-0.35,0.058-0.484,0c-0.118-0.051-0.336-0.43-0.485-0.484c-0.42-0.158-1.019-0.123-1.455-0.243
			c-0.469-0.13-1.002-0.389-1.454-0.485c-1.957-0.418-4.198-0.18-6.544-0.242c-12.023,1.952-19.61,8.342-24.477,17.45
			c-0.121,1.334-0.749,2.161-0.969,3.394c0.169,1.058-0.413,1.364-0.243,2.424c0.057,2.041,0.593,3.605,0.969,5.331
			c1.076,1.751,2.055,3.6,3.394,5.09c0.625,0.829,1.352,1.555,2.18,2.181c0.366,0.86,2.157,1.438,0.969,2.424
			c-1.48,0.532-3.089-0.744-5.089-0.484c-0.339-0.711-2.326,0.226-2.666-0.484h-3.151c-4.216-0.097-8.157,0.083-11.633,0.726h-4.12
			c-2.279,0.387-4.222,1.111-6.059,1.938C7.23,40.66,6.301,40.7,6.087,41.457c-0.487,0.481-0.792,1.145-1.454,1.454
			c-0.982,1.037-1.692,2.347-2.424,3.635c-0.411,2.223-0.359,5.335,0.243,7.271c0.866,1.638,2.255,2.755,3.392,4.12
			c0.567,0.081,1.045,0.248,1.212,0.727c2.142,0.768,4.388,1.431,7.029,1.697h9.209c1.312-0.223,2.716-0.354,4.12-0.484
			c0.581-0.147,1.105-0.349,1.939-0.242c0.925,0.215,1.547-0.396,1.939,0c-0.858,9.4-2.248,18.27-1.939,28.84
			c-0.528,4.596,0.049,10.109,0.485,14.542c0.017,2.567,0.669,4.501,0.969,6.786c0.372,0.922,0.526,2.058,0.97,2.907
			c0.268,1.024,0.873,1.712,1.212,2.667c2.675,2.495,6.123,4.217,10.906,4.605c2.814-0.338,4.996-1.306,7.028-2.424
			c1.508-1.886,2.638-4.148,3.393-6.787c0.318-1.136,0.25-2.658,0.243-4.12c1.067-4.022,1.811-8.368,2.667-12.602
			c0.338-2.165,0.753-4.256,1.211-6.302c0.211-1.082,0.601-1.984,0.728-3.151c0.528-0.763,0.384-2.2,1.211-2.665
			c1.034,3.004,1.369,6.71,1.94,10.179c0.808,3.31,1.312,6.928,2.423,9.938c0.661,3.379,2.123,5.956,3.151,8.966
			c0.958,1.062,1.424,2.615,2.424,3.635c0.84,1.261,2.162,2.04,3.15,3.152c2.682,1.033,5.052,2.38,8.967,2.182
			c2.832-1.127,4.903-3.014,6.543-5.334c0.655-3.141,1.698-5.895,1.938-9.451c-0.141-9.229-1.983-16.759-3.877-24.235
			c-0.59-0.54-0.679-1.582-0.969-2.424c-0.454-0.758-0.496-1.927-0.97-2.665c-0.322-2.021-0.98-3.706-1.454-5.576
			c-0.636-4.128-2.012-7.52-2.666-11.633C84.161,59.115,88.086,58.825,91.641,58.906z M94.549,39.275h1.696
			c0.552,0.333,0.911-0.625,0.969,0c4.29,0.073,8.274,0.45,9.937,3.15c0.103,2.445-0.673,4.012-1.212,5.816
			c-1.106,1.156-2.576,1.948-3.878,2.909c-0.977,0.153-1.223,1.037-2.423,0.968c-0.485,0.566-1.697,0.404-2.181,0.971
			c-1.967-0.108-2.974,0.741-4.847,0.726c-0.384,0.505-1.696,0.082-2.181,0.484c-0.984,0.097-1.689-0.089-1.697-0.968
			c2.533-0.377,4.656-1.162,5.089-3.637c-0.095-2.975-1.989-4.15-2.666-6.543C92.856,42.429,93.968,41.118,94.549,39.275z
			 M19.903,51.635c-0.424,1.104-1.131,2.69-0.485,4.119c-5.978,0.242-11.209-0.262-13.087-4.119c-0.429-1.211-0.288-3.366,0-4.605
			c0.755-1.183,1.8-2.078,2.666-3.15c1.037-0.337,1.678-1.07,2.908-1.212c0.972-0.321,2.251-0.335,3.151-0.728
			c0.977-0.155,2.578,0.316,3.151-0.242c0.975-0.154,2.578,0.314,3.151-0.241c0.08-0.001,0.162,0,0.242,0h0.484
			c-0.023,0.992-0.047,1.986,0.243,2.665c0.397,0.976,1.111,1.635,1.696,2.424c0.703,0.672,1.839,0.909,1.94,2.182
			C24.513,50.269,21.133,49.878,19.903,51.635z M49.228,108.106c-0.402,0.244-0.263,1.028-0.485,1.453
			c-0.193,0.453-0.405,0.888-0.485,1.453c-0.697,0.516-0.626,1.797-1.454,2.182c-1.25,0.526-3.446,0.108-5.089,0.242
			c-0.507-0.463-1.158-0.78-1.939-0.969c-0.74-0.715-1.215-1.693-1.939-2.423c-0.36-1.58-1.02-2.86-1.455-4.363
			c-0.176-1.41-1.042-3.248-0.727-4.362c1.181,0.111,0.9,1.684,1.696,2.182c0.379,0.912,0.945,1.641,1.455,2.424
			c0.765,0.122,1.064,0.712,1.938,0.726c3.926-0.112,4.021-4.058,6.302-5.816h2.181c0.588,0.623,1.278,1.146,1.939,1.696
			C50.836,104.706,49.546,105.919,49.228,108.106z M85.096,98.411c0.101,2.403,0.581,4.429,0.485,7.028
			c-0.468,3.006-0.929,6.02-2.182,8.24c-1.108-0.104-2.055-0.369-3.393-0.243c-0.505-0.382-0.987-0.789-1.696-0.969
			c-1.531-1.782-3.18-3.445-4.363-5.575c-0.362-1.254-1.114-2.116-1.455-3.392c-0.615-0.833-1.359-2.453-0.484-3.393
			c0.915,0.053,0.692,1.244,1.454,1.453c0.106,0.862,0.877,1.062,1.211,1.696c0.686,1.174,1.551,2.168,2.908,2.667h1.212
			c2.697-0.777,3.771-3.178,4.363-6.06c0.488-0.481,0.792-1.147,1.454-1.454H85.096z M85.096,54.544
			c-2.302-0.04-4.363,0.16-6.301,0.484c-0.999-0.192-0.455,1.16-1.454,0.97c-0.464,0.345-0.868,0.749-1.212,1.212
			c0.021,0.344,0.039,0.687-0.243,0.727c0.062,3.734,1,6.595,1.939,9.453c0.476,3.321,1.569,6.023,2.424,8.966
			c1.68,5.834,2.949,12.076,4.12,18.419c0.18,0.827-0.894,0.4-0.97,0.971c-0.604-0.037-0.75,0.381-1.212,0.484
			c-0.726,0.729-1.08,1.828-2.181,2.182c-0.425,1.189-1.244,1.986-1.454,3.393c-1.503-0.192-1.902-1.49-2.666-2.424
			c-0.988-0.627-1.325-1.906-2.665-2.181c-1.171-0.758-2.282,0.989-3.151,0.485c-0.553-3.002-1.946-5.164-2.424-8.241
			c-0.869-2.685-1.44-5.668-2.666-7.997c-1.079-1.669-2.453-3.042-4.12-4.121h-2.666c-1.295,0.967-1.619,2.906-2.424,4.363
			c-0.517,1.663-0.882,3.481-1.455,5.089c-0.583,3.859-1.737,7.149-2.181,11.149c-0.826,0.457-1.627-0.87-2.908-0.728
			c-1.511-0.137-2.554,0.192-3.636,0.485c-1.229,0.548-1.971,1.582-2.666,2.665c-0.716,0.982-0.872,2.522-2.182,2.908
			c-0.847-1.657-1.896-3.112-2.908-4.605c-0.838-0.292-1.606-0.654-2.908-0.484c-0.906-5.152-0.318-11.799-0.485-17.692
			c0.376-4.106,0.529-7.933,0.97-11.875c0.423-3.777,0.806-7.681,0.727-11.876c-0.215-0.107-0.433-0.213-0.484-0.485
			c-1.307-1.374-4.881-1.111-7.755-0.968c-1.144,0.056-2.182,0.412-3.151,0.242c-1.14-0.396-1.751-1.319-2.181-2.424
			c3.05-0.343,5.687-1.099,6.543-3.635v-1.697c-0.354-3.038-4.108-2.678-3.635-6.544c4.117-0.737,10.685,0.924,15.511,0.243
			c1.879-0.868,2.921-2.571,3.151-5.091c-0.206-1.167-1.176-1.57-1.697-2.424c-0.863-0.509-1.26-1.485-1.939-2.18
			c-1.23-1.517-2.291-3.203-3.151-5.09c-0.242-1.211-0.57-2.338-0.484-3.878c1.037-5.83,4.678-9.055,8.24-12.36
			c3.976-2.809,8.07-5.501,14.541-5.816c0.435,0.03,0.512-0.297,0.969-0.242c2.329-0.002,4.495,0.432,6.302,1.211
			c0.456,0.197,0.762,0.479,1.212,0.728c0.346,0.192,0.94,0.293,1.212,0.485c0.278,0.195,0.664,0.718,0.97,0.968
			c0.665,0.549,0.885,0.759,1.454,1.456c0.323,0.394,0.797,1.041,1.212,1.696c0.313,0.493,0.481,0.979,0.727,1.453
			c0.166,0.321,0.331,0.353,0.485,0.97c0.096,0.383,0.746,1.855,0.969,2.665c0.042,0.151-0.038,0.334,0,0.485
			c0.461,1.842,0.979,4.927,0.727,7.998c-0.251,2.981-1.204,5.258-2.182,7.513c-0.731,0.562-1.067,1.519-1.938,1.939
			c-0.075,0.572-0.841,0.452-0.727,1.213c-0.418,0.147,0.019,1.149-0.485,1.211c0.533,1.326,1.402,2.313,2.424,3.152
			c3.409,0.791,7.796,0.604,11.633,0.968c0.833,0.106,1.359-0.095,1.94-0.242c0.502-0.144,1.591,0.3,1.696-0.243
			c0.797,0.506-0.409,1.023-0.485,1.456c-0.403,0.323-0.081,1.373-0.484,1.696c0.288,2.538,2.133,3.521,2.423,6.058
			c-1.469,0.47-2.801,1.077-3.877,1.94c-0.164,0.643-0.382,1.233-0.727,1.695C84.896,53.716,85.643,54.019,85.096,54.544z
			 M63.769,25.218c2.377-0.853,2.627-3.836,3.151-6.544v-1.939c-0.31-1.307-0.721-2.51-1.455-3.393
			c-0.794-0.013-0.926-0.689-1.939-0.484c-0.912,0.299-1.489,0.933-2.18,1.453C59.832,17.469,58.935,25.087,63.769,25.218z
			 M47.288,24.976c0.771,0.036,1.067,0.548,1.94,0.483c4.163-1.026,4.058-10.231,0.727-12.117h-1.697
			c-0.286,0.117-0.549,0.259-0.727,0.484c-0.623,0.023-0.347,0.946-0.97,0.97c-0.094,0.634-0.124,1.329-0.484,1.696
			C46.138,19.663,45.67,23.363,47.288,24.976z M59.165,32.246c-2.485,0.143-4.535-0.151-6.545-0.483
			c-0.407-0.482-1.391-0.387-1.696-0.97c-0.685,0.2-0.628-0.342-1.212-0.243c0.173-0.658-1.143,0.174-0.969-0.484h-0.485
			c-0.556,0.251-1.114,0.5-1.454,0.97c0.006,2.623,2.468,3.162,4.12,3.878c0.635,0.275,1.345,0.633,1.939,0.969
			c2.061,0.362,4.23,0.617,6.786,0.484c3.305-0.896,6.876-1.526,7.271-5.331C64.014,30.174,61.798,32.033,59.165,32.246z
			 M56.74,49.696c2.937-0.798,5.262-3.164,4.363-7.028c-0.427-0.623-1.054-1.046-1.455-1.696c-0.431-0.134-1.006-0.124-1.212-0.485
			h-1.939c-3.04,0.998-5.675,2.402-5.331,6.787C52.315,48.79,53.877,49.894,56.74,49.696z M54.317,46.302
			c0.321-1.778,1.604-2.597,3.878-2.423C58.096,45.813,56.118,46.843,54.317,46.302z M71.767,47.03
			c0.048,0.141,1.023,0.986,0.969,0.969c0.683,0.215,1.352-0.172,1.938-0.482c0.292-1.506-0.428-1.996-0.969-2.667
			C71.781,44.45,71.374,45.902,71.767,47.03z M61.588,59.876c0.548-1.149,1.214-2.179,0.969-4.121
			c-0.326-0.158-0.451-0.518-0.484-0.969c-1.751-2.105-5.722-1.362-7.513,0.242c-0.777,1.162-1.467,2.411-1.212,4.605
			c0.579,1.037,1.386,1.844,2.424,2.424C58.756,62.376,60.131,61.084,61.588,59.876z M58.922,56.724
			c0.237,1.046-0.91,0.706-0.969,1.454c-0.762-0.121-0.948,0.528-1.455,0C56.587,56.975,57.948,57.042,58.922,56.724z
			 M70.071,59.391c0.038-2.065-1.826-4.122-3.394-2.424c-0.093,1.95,0.436,3.279,2.182,3.393
			C69.46,60.234,69.722,59.77,70.071,59.391z M44.865,63.026c0.292-1.503-0.428-1.996-0.969-2.666
			c-0.818-0.393-1.082-1.342-2.424-1.211c-1.088-0.038-1.011,1.088-0.97,2.181C41.002,62.718,43.194,64.347,44.865,63.026z
			 M60.376,64.964c-0.312,0.334-1.053,0.241-1.696,0.243c-0.607,0.441-1.503,0.597-1.939,1.211
			c-0.787,0.264-0.914,1.187-1.454,1.697c-0.007,1.46-0.076,2.982,0.242,4.119c0.882,0.896,1.949,1.607,3.636,1.697
			c3.642-0.26,6.464-3.293,4.847-7.271C63.136,65.757,61.974,65.144,60.376,64.964z M58.195,70.539
			c-0.257-1.768,2.021-2.101,3.151-1.696C60.964,70.077,59.879,70.606,58.195,70.539z M44.38,68.6
			c-0.407-1.371-1.545-2.008-2.665-2.666c-1.242,0.051-1.888,0.697-1.939,1.939c0.638,1.301,1.65,2.227,3.393,2.423
			C43.666,69.825,44.351,69.541,44.38,68.6z M75.403,75.629c0.375,1.958,3.793,1.262,3.393-0.971
			C78.103,72.984,75.368,73.84,75.403,75.629z M44.865,79.506c-1.186-0.182-1.644-0.156-2.424,0.484
			c-0.308,2.328,1.187,2.854,1.939,4.12c0.862,0.028,0.881,0.896,1.939,0.728c0.625-0.346,1.372-0.568,1.455-1.454
			C47.785,81.11,45.8,80.835,44.865,79.506z M23.053,82.172c-2.749-2.816-8.588-1.78-8.967,2.181
			c1.277,2.284,5.048,4.091,8.483,2.666c0.642-0.972,1.131-2.101,0.969-3.878C23.212,82.982,23.086,82.624,23.053,82.172z
			 M18.933,84.595c-0.188-0.619-1.562-0.054-1.455-0.968c1.013-0.549,1.951,0.043,3.151,0c-0.031,0.433,0.297,0.51,0.243,0.968
			C20.279,85.192,19.821,84.417,18.933,84.595z M69.101,87.262c1.656,1.569,4.971,0.253,4.847-2.182
			C72.843,82.833,68.557,84.26,69.101,87.262z M114.422,85.566c-0.316,1.059-0.433,1.218-0.243,2.424
			c0.657,0.312,0.862,1.077,1.939,0.968c1.122-0.25,1.871-0.875,1.939-2.181C117.861,84.899,115.664,84.522,114.422,85.566z
			 M102.788,93.079h-2.423c-0.148,0.014-0.287,0.036-0.243,0.242c-0.94,0.029-1.225,0.714-1.696,1.211
			c-0.298,2.722,0.699,4.148,1.939,5.333c1.023,0.269,2.306,0.278,3.635,0.243c0.784-0.59,1.499-1.249,1.697-2.424
			C105.713,95.163,104.32,94.052,102.788,93.079z M102.547,97.199c-1.123,0.546-2.377-0.566-1.939-1.454
			C101.573,95.081,102.964,95.711,102.547,97.199z M18.69,97.441c-1.61-0.155-2.549,0.359-2.424,1.939
			c0.32,1.34,2.387,2.251,3.636,1.211c0.054-0.188,0.006-0.477,0.242-0.482C20.198,98.68,19.38,98.125,18.69,97.441z M8.026,100.834
			c-0.949-0.822-2.527,0.29-2.423,1.696c0.405,1.373,1.316,2.238,3.15,2.182c0.361-0.284,0.684-0.607,0.97-0.969
			c0.227-1.359-0.62-1.643-0.728-2.667C8.69,100.954,8.26,101.037,8.026,100.834z M114.907,102.046
			c-4.827-1.144-8.685,1.929-7.27,7.027c0.839,0.992,2.987,1.229,4.604,0.728c0.363-0.445,1.012-0.606,1.212-1.213
			c0.593-0.214,0.262-1.353,1.212-1.211c0.722-0.975,1.446-1.946,1.212-3.877C115.433,103.135,115.306,102.455,114.907,102.046z
			 M111.998,106.892c-1.037-0.066-1.198,0.742-2.423,0.485c-0.204-1.497,1.107-1.477,1.454-2.424
			c0.921-0.128,1.344-0.756,2.424-0.727C113.452,105.598,112.386,105.909,111.998,106.892z M99.88,106.65
			c-0.285-0.038-0.687,0.042-0.727-0.241H97.7c-0.148,0.014-0.287,0.036-0.243,0.241c-1.128-0.077-1.349,0.753-2.182,0.97
			c-0.221,0.829-0.598,1.502-0.727,2.425c0.179,1.679,1.049,2.666,1.939,3.635c1.257,0.278,2.195,0.874,3.877,0.727
			c0.778-0.434,1.443-0.981,1.939-1.697c0.037-0.284-0.042-0.687,0.242-0.726C102.735,109.129,101.388,107.809,99.88,106.65z
			 M99.396,111.983c-1.568-0.049-2.392-0.84-2.182-2.666c0.318-0.247,0.893-0.238,1.212-0.485
			C99.782,108.762,99.922,110.952,99.396,111.983z M15.782,110.286c-0.301,2.401,0.613,3.589,2.908,3.394
			c0.949-0.505,1.421-1.487,1.212-3.151C19.093,109.3,16.7,108.859,15.782,110.286z"/>
	</g>
</g>
<g>
</g>
<g>
</g>
<g>
</g>
<g>
</g>
<g>
</g>
<g>
</g>
<g>
</g>
<g>
</g>
<g>
</g>
<g>
</g>
<g>
</g>
<g>
</g>
<g>
</g>
<g>
</g>
<g>
</g>
</svg>
