<svg xmlns="http://www.w3.org/2000/svg" xmlns:xlink="http://www.w3.org/1999/xlink" width="30" height="29" viewBox="0 0 30 29">
    <defs>
        <path id="a" d="M13.5 0H0v27h27V0z"/>
    </defs>
    <g fill="none" fill-rule="evenodd" transform="translate(1 1)">
        <mask id="b" fill="#fff">
            <use xlink:href="#a"/>
        </mask>
        <path fill="#000" d="M6.882 5.843h1.21V4.648h-1.21v1.195zm3.988 0h1.209V4.648h-1.21v1.195zm15.319 5.892l-2.575-.002-.006 4.175-.735.792.824.832 1.057-1.14.005-3.462h.422l.616 4.952-1.293 1.558h-.155l-8.836-9.764H14.39v1.197h.629l8.505 9.398v4.657c0 .483-.377.876-.84.876H12.297v-1.015c0-.56.437-1.015.973-1.015h4.005v-.597c0-1.45 1.13-2.628 2.52-2.628v-1.196c-1.827 0-3.346 1.4-3.622 3.226H13.27c-.038 0-.076 0-.114.003l.245-3.617 2.722-2.225-.708-.942-3.122 2.553-.318 4.689a2.243 2.243 0 0 0-.825 1.75v1.014h-6.62v-1.015c0-.56.437-1.015.973-1.015h3.532l.639-10.235-1.145-.078-.569 9.118H5.504c-1.169 0-2.12.991-2.12 2.21V27h19.3c1.095 0 1.987-.93 1.987-2.072v-4.291h.357L27 18.26l-.811-6.524zM3.758 6.825c-.304 0-.593-.147-.794-.403L.273 2.997a1.383 1.383 0 0 1 0-1.648L1.333 0h4.85l1.06 1.348c.048.062.09.129.126.199h4.223c.036-.07.078-.137.126-.198L12.778 0h4.85l1.06 1.349a1.383 1.383 0 0 1 0 1.648l-2.691 3.425c-.201.256-.49.403-.794.403-.303 0-.592-.147-.793-.403l-.252-.32-.68 4.55c-.156 1.05-.893 1.782-1.79 1.782H7.273c-.897 0-1.634-.733-1.79-1.782l-.68-4.55-.252.32c-.2.256-.49.403-.793.403zm8.847-4.585l2.598 3.305 2.598-3.306c.02-.026.02-.106 0-.132l-.715-.91H13.32l-.716.91c-.02.026-.02.106 0 .133zm-5.362.757L5.778 4.861l.838 5.607c.053.355.257.77.657.77h1.634v-2.03h-.873V8.012h2.893v1.196h-.873v2.03h1.634c.4 0 .604-.415.657-.77l.838-5.607-1.465-1.864a1.238 1.238 0 0 1-.154-.254H7.396c-.04.09-.091.176-.153.254zM3.758 5.545l2.598-3.306c.02-.026.02-.106 0-.132l-.716-.911H1.875l-.715.91c-.02.027-.02.107 0 .133l2.598 3.306z" mask="url(#b)"/>
    </g>
</svg>
