<?xml version="1.0" encoding="utf-8"?>
<!-- Generator: Adobe Illustrator 21.0.2, SVG Export Plug-In . SVG Version: 6.00 Build 0)  -->
<svg version="1.1" id="Layer_1" xmlns="http://www.w3.org/2000/svg" xmlns:xlink="http://www.w3.org/1999/xlink" x="0px" y="0px"
	 viewBox="0 0 800 1000" style="enable-background:new 0 0 800 1000;" xml:space="preserve">
<style type="text/css">
	.st0{stroke:#000000;stroke-width:0.2835;stroke-miterlimit:10;}
</style>
<g>
	<path class="st0" d="M666.9,446.2c35.9-25.7,53.9-69.5,46.1-113.2c-7.9-43.6-39.6-77-79.3-89.1c0.1-0.9,0.2-1.8,0.1-2.7
		c-3.5-28.5-19.3-54.1-43.2-70C548.3,143,491.9,151.9,460,190c-13.9-11.7-30.9-19.6-49.3-22.4c-43-6.4-83.7,16.1-102.4,52.8
		c-1.1-0.3-2.3-0.4-3.5-0.3c-30.3,3.7-57.4,18.9-76.3,42.9c-17.9,22.7-26.3,50.8-24.1,79.4c-20.6,8.9-38,23.8-50.4,43.1
		c-16.4,25.7-21.9,56.3-15.4,86.1c10,45.6,46.1,78.9,89.2,87.6c5.3,27,21.6,50.6,45.2,65.1c16.1,9.9,33.9,14.6,51.5,14.6
		c22.9,0,45.5-7.9,63.4-22.8c0.9,0.7,2,1.3,3.1,1.6c10.6,3.1,21.5,4.6,32.2,4.6c19,0,37.8-4.8,54.9-14c15.8-8.6,29-20.6,38.9-34.9
		c12.2,4.1,24.5,6.1,36.8,6.1c46.7,0,90.6-28.8,107.7-75.1C668.4,485.5,670.2,465.5,666.9,446.2z M643.7,498
		c-17.4,47.6-69,73.1-117,58.7c2.5-5.3,4.6-10.9,6.2-16.6c1.5-5-1.4-10.2-6.4-11.7s-10.2,1.4-11.7,6.4
		c-7.2,24.4-23.4,44.6-45.8,56.9c-20.6,11.2-44,14.5-66.6,9.4c2.3-2.9,4.4-6,6.4-9.2c2.7-4.5,1.3-10.3-3.1-13
		c-4.5-2.7-10.3-1.3-13,3.1c-11.2,18.2-28.7,30.9-49.5,35.9s-42.2,1.6-60.4-9.6c-17.4-10.7-29.9-27.5-35.2-46.9
		c0.9,0,1.8,0.1,2.7,0.1c8,0,16.2-0.9,24.3-2.6c5.1-1.1,8.3-6.1,7.2-11.2c-1.1-5.1-6.1-8.3-11.2-7.2
		c-51.4,11.3-102.4-21.4-113.7-72.9c-5.5-24.9-0.9-50.4,12.9-71.9c13.8-21.5,35.1-36.3,60-41.8c5.1-1.1,8.3-6.1,7.2-11.2
		s-6.1-8.3-11.2-7.2c-1,0.2-1.9,0.4-2.9,0.7c-0.7-22.3,6.4-43.9,20.4-61.6c14.5-18.4,34.7-30.6,57.6-34.9c-1,3.6-1.7,7.3-2.3,11.1
		c-0.8,5.2,2.8,9.9,7.9,10.7c0.5,0.1,0.9,0.1,1.4,0.1c4.6,0,8.6-3.3,9.4-7.9c6.4-43.6,47.1-73.8,90.7-67.4
		c22.9,3.4,43.3,16.6,55.7,36.2c2.8,4.4,8.6,5.7,13,2.9s5.7-8.6,2.9-13c-2-3.1-4.1-6-6.3-8.8c25.5-32.1,72.1-39.8,106.8-16.7
		c18.4,12.2,30.7,31.3,34.4,52.9c-11.1-1.4-22.6-1.2-34.2,0.9c-5.1,0.9-8.5,5.8-7.6,10.9c0.9,5.1,5.8,8.5,10.9,7.6
		c51.8-9.3,101.5,25.3,110.9,77.1c6.1,34-6.7,68.3-32.8,90.1c-2.2-6.2-5-12.2-8.3-18c-2.6-4.5-8.4-6.1-12.9-3.5s-6.1,8.4-3.5,12.9
		C651,442.3,653.4,471.5,643.7,498z"/>
	<path class="st0" d="M277,183.7c0.9,0.3,1.8,0.4,2.7,0.4c4.1,0,7.8-2.6,9-6.8c4.5-15.5,14.9-28.4,29.1-36.1
		c11.7-6.3,24.8-8.7,37.7-6.8c-0.5,0.8-1,1.6-1.5,2.4c-2.7,4.5-1.3,10.3,3.1,13c1.5,0.9,3.2,1.4,4.9,1.4c3.1,0,6.2-1.6,8.1-4.5
		c14.5-23.5,45.5-30.9,69.1-16.3c4.5,2.7,10.3,1.3,13-3.1c2.7-4.5,1.3-10.3-3.1-13c-15.7-9.6-34.2-12.6-52.2-8.4
		c-9.9,2.3-18.9,6.6-26.6,12.7c-0.3-0.1-0.7-0.3-1-0.4c-20.4-5.9-41.9-3.7-60.5,6.5c-18.6,10.1-32.2,26.9-38.2,47.3
		C269.1,177,272,182.2,277,183.7z"/>
	<path class="st0" d="M716.8,435.7c-3-4.2-8.9-5.2-13.1-2.2s-5.2,8.9-2.2,13.1c17.7,24.9,13.9,58.5-7.4,78.9
		c-0.3-0.9-0.6-1.8-0.9-2.6c-1.8-4.9-7.2-7.4-12.1-5.6c-4.9,1.8-7.4,7.2-5.6,12.1c4.7,12.6,4.1,26.2-1.5,38.4
		c-5.7,12.2-15.7,21.5-28.3,26.1c-4.9,1.8-7.4,7.2-5.6,12.1c1.4,3.8,5,6.2,8.8,6.2c1.1,0,2.2-0.2,3.3-0.6
		c17.4-6.4,31.2-19.2,38.9-35.9c4.2-9.1,6.3-18.9,6.4-28.7c0.2-0.2,0.5-0.3,0.7-0.5C733.9,521.2,742.2,471.4,716.8,435.7z"/>
</g>
</svg>
