<svg xmlns="http://www.w3.org/2000/svg" width="30" height="30" viewBox="0 0 30 30">
    <path fill="#000" fill-rule="evenodd" d="M20.602 9.035c2.855 0 4.304-3.32 4.364-3.461a.423.423 0 0 0-.175-.532l-6.793-3.984a.419.419 0 0 0-.54.1c-.072.09-1.756 2.235-1.336 4.428.134.696.461 1.313.977 1.845l-.464.79a4.388 4.388 0 0 0-1.978-.464c-1.728 0-3.235.97-3.795 2.4a4.423 4.423 0 0 0-.392-.018c-1.565 0-2.96.792-3.628 2.038h-.651c-.656 0-1.19.535-1.19 1.193v2.684a.536.536 0 0 0 0 .048V16.184c0 .055.006.11.013.163.063.765.394 3.135 2.132 4.79.162.155.334.298.511.431l.634 3.404c.123.702.813 2.028 2.543 2.028h7.14c1.73 0 2.42-1.326 2.542-2.024l1.414-7.598h.687c.655 0 1.188-.536 1.188-1.194V13.37c0-.658-.533-1.193-1.188-1.193h-.557c-.265-1.324-1.347-2.392-2.746-2.791l.286-.487c.338.09.672.136 1.002.136zm-2.887-.99l1.048.615-2.023 3.448h-1.404l2.379-4.063zm-9.61 3.853c.596-.568 1.453-.914 2.364-.914a3.607 3.607 0 0 1 .613.052.422.422 0 0 0 .476-.307 2.546 2.546 0 0 1 .417-.86c.07-.097.149-.19.233-.277.588-.613 1.472-.99 2.449-.99.208 0 .413.018.612.051.332.056.648.157.94.298l-1.877 3.204H7.867c.074-.09.154-.176.239-.257zm-2.073 5.468c.052.007.105.012.159.012h.687l.521 2.805c-.782-.902-1.173-1.989-1.367-2.817zm1.704.024h10.317c-.512 1.85-1.568 3.165-3.15 3.916-1.472.7-2.878.634-2.891.633a.37.37 0 0 0-.037 0c-1.093.034-2.054-.135-2.876-.501a4.916 4.916 0 0 1-.677-.366h-.001l-.685-3.682zm11.953 7.433c-.026.136-.293 1.332-1.716 1.332h-7.139c-1.423 0-1.69-1.196-1.716-1.334l-.496-2.669a5.935 5.935 0 0 0 .646.262c.73.249 1.541.375 2.429.375.094 0 .19-.002.288-.004.197.008 1.666.04 3.243-.698 1.351-.633 3.002-1.954 3.694-4.697h2.15l-1.383 7.433zm-1.332-9.442a.718.718 0 0 1-.097-.073l-.014-.013a.659.659 0 0 1-.074-.082l-.018-.024-.016-.024-.018-.03-.011-.02a.65.65 0 0 1-.024-.049l-.008-.02a.536.536 0 0 1-.015-.04l-.006-.017a.765.765 0 0 1-.014-.058l-.002-.012a.727.727 0 0 1-.008-.05l-.002-.018a.698.698 0 0 1 .756-.76l.018.002a.7.7 0 0 1 .05.008l.013.002.057.015.018.006.04.014.019.009a.6.6 0 0 1 .049.024l.02.011a.564.564 0 0 1 .076.051.772.772 0 0 1 .042.035l.016.015.025.026.012.013a.68.68 0 0 1 .073.098l.008.013a.7.7 0 0 1 .097.355.698.698 0 0 1-.696.699.688.688 0 0 1-.354-.098l-.012-.008zm4.26-2.36c.191 0 .347.157.347.35v2.813a.349.349 0 0 1-.347.349h-3.52c.014-.085.026-.171.038-.258a1.545 1.545 0 0 0 .142-2.928l-.008-.003a1.459 1.459 0 0 0-.12-.04l-.014-.005c-.04-.01-.08-.02-.122-.028l-.017-.003a1.458 1.458 0 0 0-.125-.018l-.013-.001a1.554 1.554 0 0 0-.27 0l-.012.001c-.043.004-.085.01-.126.018-.006 0-.011.002-.017.003a1.438 1.438 0 0 0-.12.028l-.016.005c-.04.012-.08.025-.12.04l-.008.003a1.545 1.545 0 0 0-.983 1.44c0 .7.465 1.292 1.101 1.481-.013.09-.027.177-.042.264H6.19a.348.348 0 0 1-.337-.268 4.769 4.769 0 0 1-.01-.137V13.37c0-.192.156-.348.347-.348h16.427zm-1.426-.866h-3.502l.948-1.615-.023-.004.255-.392c1.134.245 2.04 1.021 2.322 2.01zm-2.47-4.55l-.013-.009a.403.403 0 0 0-.056-.031c-.751-.434-1.264-.966-1.533-1.587l-.014-.034a2.156 2.156 0 0 1-.085-.232 2.684 2.684 0 0 1-.028-.1l-.012-.043a2.505 2.505 0 0 1-.03-.14c-.269-1.387.553-2.839.956-3.447l6.121 3.591-.05.091-.012.023-.05.086-.008.015a7.661 7.661 0 0 1-.144.237l-.001.001c-.555.874-1.632 2.164-3.16 2.164-.598 0-1.23-.197-1.881-.585z"/>
</svg>
