<?xml version="1.0" encoding="iso-8859-1"?>
<!-- Generator: Adobe Illustrator 19.0.0, SVG Export Plug-In . SVG Version: 6.00 Build 0)  -->
<svg version="1.1" id="Capa_1" xmlns="http://www.w3.org/2000/svg" xmlns:xlink="http://www.w3.org/1999/xlink" x="0px" y="0px"
	 viewBox="0 0 58.802 58.802" style="enable-background:new 0 0 58.802 58.802;" xml:space="preserve">
<g>
	<path d="M47.554,36.41c-2.174-2.165-4.087-3.837-5.699-4.983c0.015-0.115,0.035-0.229,0.035-0.349v-2.555
		c0-1.355-0.999-2.474-2.297-2.68c-0.237-3.306-1.709-4.043-2.963-4.043c-0.736,0-1.339,0.22-1.805,0.655
		c-0.531-0.431-1.271-0.655-2.195-0.655c-0.428,0-0.853,0.101-1.265,0.296c-0.736-3.082-3.024-5.296-5.735-5.296
		c-1.043,0-2.031,0.352-2.899,0.954l-1.72-8.061c1.969-1.479,3.328-3.875,3.575-6.585c0.083-0.907-0.262-1.776-0.946-2.384
		c-0.687-0.609-1.592-0.854-2.495-0.658L10.592,2.319C9.695,2.511,8.964,3.101,8.585,3.937C8.208,4.771,8.248,5.706,8.694,6.502
		c1.233,2.194,3.225,3.753,5.418,4.407l2.228,10.435c-0.559,0.355-1.063,0.833-1.479,1.428c-0.65-0.532-1.425-0.828-2.231-0.828
		c-2.165,0-3.923,2.102-3.988,4.713c-0.463,0.488-0.751,1.143-0.751,1.867v2.555c0,1.193,0.776,2.198,1.846,2.565l3.096,22.445
		c0.212,1.547,1.55,2.713,3.111,2.713h17.371c1.561,0,2.898-1.166,3.111-2.712l0.164-1.188c0.966,0.292,1.939,0.433,2.899,0.433
		c3.078,0,6.012-1.403,8.104-3.568C51.224,48.004,52.761,41.596,47.554,36.41z M39.89,28.523v2.555c0,0.398-0.324,0.723-0.723,0.723
		H10.613c-0.398,0-0.723-0.324-0.723-0.723v-2.555c0-0.398,0.324-0.723,0.723-0.723H38.63h0.538
		C39.566,27.801,39.89,28.125,39.89,28.523z M10.438,5.522c-0.132-0.235-0.144-0.513-0.031-0.761
		c0.114-0.252,0.334-0.43,0.604-0.487l10.552-2.252c0.267-0.057,0.542,0.015,0.75,0.199c0.203,0.181,0.306,0.438,0.281,0.706
		c-0.243,2.661-1.822,4.922-3.975,5.859l-2.155,0.46C14.114,9.269,11.748,7.854,10.438,5.522z M18.242,20.677l-1.994-9.34
		l0.461-0.098c0.426-0.016,0.851-0.059,1.273-0.15c0.413-0.088,0.815-0.214,1.203-0.369l1.867,8.746
		c-0.044,0.066-0.08,0.138-0.123,0.205c-0.105,0.167-0.211,0.332-0.305,0.51c-0.07,0.132-0.127,0.272-0.19,0.409
		c-0.06,0.133-0.13,0.258-0.184,0.396c-0.518-0.218-1.063-0.329-1.621-0.329C18.5,20.658,18.371,20.664,18.242,20.677z
		 M12.63,23.943c0.594,0,1.16,0.398,1.553,1.092c0.19,0.337,0.551,0.542,0.945,0.505c0.386-0.028,0.721-0.278,0.858-0.64
		c0.398-1.04,1.07-1.784,1.847-2.088c0.003-0.001,0.006,0,0.009-0.001c0.176-0.07,0.356-0.107,0.537-0.128
		c0.039-0.005,0.077-0.009,0.116-0.011c0.364-0.023,0.73,0.051,1.078,0.214c0.038,0.018,0.075,0.036,0.112,0.056
		c0.172,0.091,0.34,0.198,0.498,0.333c0.082,0.07,0.175,0.119,0.272,0.159c0.029,0.012,0.059,0.02,0.089,0.029
		c0.075,0.022,0.15,0.036,0.228,0.04c0.02,0.001,0.039,0.01,0.059,0.01c0.01,0,0.02-0.005,0.03-0.005
		c0.098-0.003,0.195-0.016,0.29-0.048c0.333-0.112,0.583-0.392,0.657-0.735c0.056-0.257,0.129-0.501,0.21-0.739
		c0.04-0.117,0.087-0.229,0.134-0.342c0.042-0.104,0.085-0.207,0.132-0.307c0.07-0.148,0.145-0.292,0.226-0.431
		c0.026-0.045,0.053-0.089,0.08-0.133c0.1-0.161,0.204-0.318,0.318-0.465c0.724-0.935,1.688-1.507,2.72-1.507
		c2.104,0,3.889,2.332,3.98,5.198c0.013,0.413,0.279,0.776,0.67,0.912c0.388,0.135,0.825,0.019,1.093-0.298
		c0.437-0.517,0.895-0.813,1.257-0.813c1.134,0,1.148,0.379,1.171,0.952c0.02,0.506,0.414,0.918,0.92,0.958
		c0.497,0.037,0.959-0.304,1.06-0.801c0.223-1.109,0.556-1.109,0.85-1.109c0.643,0,0.877,1.063,0.959,2H10.761
		C11.051,24.727,11.791,23.943,12.63,23.943z M34.446,55.815c-0.078,0.562-0.564,0.985-1.131,0.985H15.944
		c-0.567,0-1.054-0.423-1.131-0.985l-3.036-22.014h25.705l-2.504,18.155c-0.497-0.323-0.99-0.696-1.472-1.147
		c-1.956-1.833-3.422-3.839-4.246-5.084c1.515-0.607,2.59-2.083,2.59-3.812c0-2.267-1.844-4.111-4.11-4.111
		s-4.111,1.845-4.111,4.111c0,2.025,1.475,3.703,3.405,4.04c0.655,1.083,2.434,3.814,5.104,6.316
		c0.818,0.767,1.672,1.37,2.543,1.836L34.446,55.815z M25.63,41.912c0-1.164,0.947-2.111,2.111-2.111s2.11,0.947,2.11,2.111
		s-0.946,2.111-2.11,2.111S25.63,43.076,25.63,41.912z M46.154,50.375c-2.262,2.341-5.795,3.745-9.287,2.524l2.639-19.132
		c0.514-0.065,0.98-0.27,1.364-0.581c1.481,1.076,3.281,2.659,5.273,4.643C50.391,42.058,49.127,47.297,46.154,50.375z"/>
</g>
<g>
</g>
<g>
</g>
<g>
</g>
<g>
</g>
<g>
</g>
<g>
</g>
<g>
</g>
<g>
</g>
<g>
</g>
<g>
</g>
<g>
</g>
<g>
</g>
<g>
</g>
<g>
</g>
<g>
</g>
</svg>
